<mxfile host="Electron" modified="2024-03-19T08:42:11.831Z" agent="Mozilla/5.0 (Windows NT 10.0; Win64; x64) AppleWebKit/537.36 (KHTML, like Gecko) draw.io/24.0.4 Chrome/120.0.6099.109 Electron/28.1.0 Safari/537.36" etag="L6unJos4PbLqA8xzC7BA" version="24.0.4" type="device">
  <diagram name="Page-1" id="2cc2dc42-3aac-f2a9-1cec-7a8b7cbee084">
    <mxGraphModel dx="1235" dy="740" grid="1" gridSize="10" guides="1" tooltips="1" connect="1" arrows="1" fold="1" page="1" pageScale="1" pageWidth="1100" pageHeight="850" background="none" math="0" shadow="0">
      <root>
        <mxCell id="0" />
        <mxCell id="1" parent="0" />
        <mxCell id="ZNkZt2BZPGhR_4YF77qX-10" value="" style="strokeWidth=1;shadow=0;dashed=0;align=center;html=1;shape=mxgraph.mockup.containers.browserWindow;rSize=0;strokeColor=#666666;strokeColor2=#008cff;strokeColor3=#c4c4c4;mainText=,;recursiveResize=0;" parent="1" vertex="1">
          <mxGeometry x="130" y="100" width="740" height="640" as="geometry" />
        </mxCell>
        <mxCell id="ZNkZt2BZPGhR_4YF77qX-11" value="Bookstore" style="strokeWidth=1;shadow=0;dashed=0;align=center;html=1;shape=mxgraph.mockup.containers.anchor;fontSize=17;fontColor=#666666;align=left;whiteSpace=wrap;" parent="ZNkZt2BZPGhR_4YF77qX-10" vertex="1">
          <mxGeometry x="60" y="12" width="110" height="26" as="geometry" />
        </mxCell>
        <mxCell id="ZNkZt2BZPGhR_4YF77qX-12" value="https://www.example.com" style="strokeWidth=1;shadow=0;dashed=0;align=center;html=1;shape=mxgraph.mockup.containers.anchor;rSize=0;fontSize=17;fontColor=#666666;align=left;" parent="ZNkZt2BZPGhR_4YF77qX-10" vertex="1">
          <mxGeometry x="130" y="60" width="250" height="26" as="geometry" />
        </mxCell>
        <mxCell id="ZNkZt2BZPGhR_4YF77qX-13" value="" style="rounded=0;whiteSpace=wrap;html=1;" parent="ZNkZt2BZPGhR_4YF77qX-10" vertex="1">
          <mxGeometry y="110" width="740" height="520" as="geometry" />
        </mxCell>
        <mxCell id="ZNkZt2BZPGhR_4YF77qX-14" value="" style="endArrow=none;html=1;rounded=0;entryX=1;entryY=0;entryDx=0;entryDy=0;exitX=0;exitY=1;exitDx=0;exitDy=0;" parent="ZNkZt2BZPGhR_4YF77qX-10" source="ZNkZt2BZPGhR_4YF77qX-33" target="ZNkZt2BZPGhR_4YF77qX-13" edge="1">
          <mxGeometry width="50" height="50" relative="1" as="geometry">
            <mxPoint x="350" y="420" as="sourcePoint" />
            <mxPoint x="400" y="370" as="targetPoint" />
          </mxGeometry>
        </mxCell>
        <mxCell id="ZNkZt2BZPGhR_4YF77qX-15" value="" style="endArrow=none;html=1;rounded=0;entryX=0;entryY=0;entryDx=0;entryDy=0;exitX=1;exitY=1;exitDx=0;exitDy=0;" parent="ZNkZt2BZPGhR_4YF77qX-10" source="ZNkZt2BZPGhR_4YF77qX-13" target="ZNkZt2BZPGhR_4YF77qX-13" edge="1">
          <mxGeometry width="50" height="50" relative="1" as="geometry">
            <mxPoint x="350" y="420" as="sourcePoint" />
            <mxPoint x="400" y="370" as="targetPoint" />
          </mxGeometry>
        </mxCell>
        <mxCell id="ZNkZt2BZPGhR_4YF77qX-34" value="" style="endArrow=none;html=1;rounded=0;entryX=1;entryY=0;entryDx=0;entryDy=0;exitX=0;exitY=1;exitDx=0;exitDy=0;" parent="ZNkZt2BZPGhR_4YF77qX-10" source="ZNkZt2BZPGhR_4YF77qX-13" target="ZNkZt2BZPGhR_4YF77qX-33" edge="1">
          <mxGeometry width="50" height="50" relative="1" as="geometry">
            <mxPoint x="130" y="630" as="sourcePoint" />
            <mxPoint x="870" y="210" as="targetPoint" />
          </mxGeometry>
        </mxCell>
        <mxCell id="ZNkZt2BZPGhR_4YF77qX-16" value="" style="rounded=0;whiteSpace=wrap;html=1;" parent="ZNkZt2BZPGhR_4YF77qX-10" vertex="1">
          <mxGeometry x="77.5" y="165" width="585" height="465" as="geometry" />
        </mxCell>
        <mxCell id="ZNkZt2BZPGhR_4YF77qX-19" value="" style="rounded=1;whiteSpace=wrap;html=1;" parent="ZNkZt2BZPGhR_4YF77qX-10" vertex="1">
          <mxGeometry x="115" y="135" width="510" height="60" as="geometry" />
        </mxCell>
        <mxCell id="ZNkZt2BZPGhR_4YF77qX-20" value="" style="endArrow=none;html=1;rounded=0;entryX=0.987;entryY=0.012;entryDx=0;entryDy=0;exitX=0.012;exitY=0.989;exitDx=0;exitDy=0;entryPerimeter=0;exitPerimeter=0;" parent="ZNkZt2BZPGhR_4YF77qX-10" source="ZNkZt2BZPGhR_4YF77qX-19" target="ZNkZt2BZPGhR_4YF77qX-19" edge="1">
          <mxGeometry width="50" height="50" relative="1" as="geometry">
            <mxPoint x="400" y="360" as="sourcePoint" />
            <mxPoint x="450" y="310" as="targetPoint" />
          </mxGeometry>
        </mxCell>
        <mxCell id="ZNkZt2BZPGhR_4YF77qX-21" value="" style="endArrow=none;html=1;rounded=0;entryX=0;entryY=0;entryDx=0;entryDy=0;exitX=0.991;exitY=0.98;exitDx=0;exitDy=0;exitPerimeter=0;" parent="ZNkZt2BZPGhR_4YF77qX-10" source="ZNkZt2BZPGhR_4YF77qX-19" edge="1">
          <mxGeometry width="50" height="50" relative="1" as="geometry">
            <mxPoint x="495" y="180" as="sourcePoint" />
            <mxPoint x="130.00000000000017" y="135" as="targetPoint" />
          </mxGeometry>
        </mxCell>
        <mxCell id="ZNkZt2BZPGhR_4YF77qX-22" value="Home" style="rounded=1;whiteSpace=wrap;html=1;" parent="ZNkZt2BZPGhR_4YF77qX-10" vertex="1">
          <mxGeometry x="140" y="150" width="100" height="30" as="geometry" />
        </mxCell>
        <mxCell id="ZNkZt2BZPGhR_4YF77qX-23" value="Blog" style="rounded=1;whiteSpace=wrap;html=1;" parent="ZNkZt2BZPGhR_4YF77qX-10" vertex="1">
          <mxGeometry x="260" y="150" width="100" height="30" as="geometry" />
        </mxCell>
        <mxCell id="ZNkZt2BZPGhR_4YF77qX-26" value="Webshop" style="rounded=1;whiteSpace=wrap;html=1;" parent="ZNkZt2BZPGhR_4YF77qX-10" vertex="1">
          <mxGeometry x="380" y="150" width="100" height="30" as="geometry" />
        </mxCell>
        <mxCell id="ZNkZt2BZPGhR_4YF77qX-31" value="About us" style="rounded=1;whiteSpace=wrap;html=1;" parent="ZNkZt2BZPGhR_4YF77qX-10" vertex="1">
          <mxGeometry x="500" y="150" width="100" height="30" as="geometry" />
        </mxCell>
        <mxCell id="ZNkZt2BZPGhR_4YF77qX-33" value="" style="rounded=0;whiteSpace=wrap;html=1;" parent="ZNkZt2BZPGhR_4YF77qX-10" vertex="1">
          <mxGeometry x="670" y="110" width="70" height="30" as="geometry" />
        </mxCell>
        <mxCell id="ZNkZt2BZPGhR_4YF77qX-36" value="" style="verticalLabelPosition=bottom;verticalAlign=top;html=1;shape=mxgraph.basic.moon" parent="ZNkZt2BZPGhR_4YF77qX-10" vertex="1">
          <mxGeometry x="680" y="115" width="20" height="20" as="geometry" />
        </mxCell>
        <mxCell id="ZNkZt2BZPGhR_4YF77qX-37" value="" style="verticalLabelPosition=bottom;verticalAlign=top;html=1;shape=mxgraph.basic.sun" parent="ZNkZt2BZPGhR_4YF77qX-10" vertex="1">
          <mxGeometry x="710" y="115" width="20" height="20" as="geometry" />
        </mxCell>
        <mxCell id="aVpiYsMYMwe3Tgz7oXU2-8" value="" style="group" vertex="1" connectable="0" parent="ZNkZt2BZPGhR_4YF77qX-10">
          <mxGeometry x="78" y="540" width="142.5" height="90" as="geometry" />
        </mxCell>
        <mxCell id="aVpiYsMYMwe3Tgz7oXU2-1" value="Contact information&lt;div&gt;&lt;br/&gt;&lt;/div&gt;" style="rounded=0;whiteSpace=wrap;html=1;verticalAlign=top;" vertex="1" parent="aVpiYsMYMwe3Tgz7oXU2-8">
          <mxGeometry width="142.5" height="90" as="geometry" />
        </mxCell>
        <mxCell id="aVpiYsMYMwe3Tgz7oXU2-2" value="" style="fontColor=#0066CC;verticalAlign=top;verticalLabelPosition=bottom;labelPosition=center;align=center;html=1;outlineConnect=0;fillColor=#CCCCCC;strokeColor=#6881B3;gradientColor=none;gradientDirection=north;strokeWidth=2;shape=mxgraph.networks.phone_1;" vertex="1" parent="aVpiYsMYMwe3Tgz7oXU2-8">
          <mxGeometry x="7" y="35.5" width="12" height="9" as="geometry" />
        </mxCell>
        <mxCell id="aVpiYsMYMwe3Tgz7oXU2-3" value="+36-20-123-4567" style="text;html=1;align=left;verticalAlign=middle;whiteSpace=wrap;rounded=0;fontSize=7;" vertex="1" parent="aVpiYsMYMwe3Tgz7oXU2-8">
          <mxGeometry x="21" y="32.5" width="63" height="15" as="geometry" />
        </mxCell>
        <mxCell id="aVpiYsMYMwe3Tgz7oXU2-4" value="" style="verticalLabelPosition=bottom;shadow=0;dashed=0;align=center;html=1;verticalAlign=top;strokeWidth=1;shape=mxgraph.mockup.misc.mail2;strokeColor=#999999;" vertex="1" parent="aVpiYsMYMwe3Tgz7oXU2-8">
          <mxGeometry x="6" y="47.5" width="13" height="7" as="geometry" />
        </mxCell>
        <mxCell id="aVpiYsMYMwe3Tgz7oXU2-5" value="bookstore@domain.com" style="text;html=1;align=left;verticalAlign=middle;whiteSpace=wrap;rounded=0;fontSize=7;" vertex="1" parent="aVpiYsMYMwe3Tgz7oXU2-8">
          <mxGeometry x="21" y="43.5" width="83" height="15" as="geometry" />
        </mxCell>
        <mxCell id="aVpiYsMYMwe3Tgz7oXU2-6" value="" style="sketch=0;pointerEvents=1;shadow=0;dashed=0;html=1;strokeColor=none;fillColor=#505050;labelPosition=center;verticalLabelPosition=bottom;verticalAlign=top;outlineConnect=0;align=center;shape=mxgraph.office.concepts.home;" vertex="1" parent="aVpiYsMYMwe3Tgz7oXU2-8">
          <mxGeometry x="8" y="58.5" width="10" height="10" as="geometry" />
        </mxCell>
        <mxCell id="aVpiYsMYMwe3Tgz7oXU2-7" value="&lt;font style=&quot;font-size: 7px;&quot;&gt;123 Main Street&lt;br&gt;Anytown, USA&lt;br&gt;12345&lt;/font&gt;" style="text;html=1;align=left;verticalAlign=middle;whiteSpace=wrap;rounded=0;fontSize=7;" vertex="1" parent="aVpiYsMYMwe3Tgz7oXU2-8">
          <mxGeometry x="21" y="56.5" width="81" height="33.5" as="geometry" />
        </mxCell>
        <mxCell id="aVpiYsMYMwe3Tgz7oXU2-15" value="" style="group" vertex="1" connectable="0" parent="ZNkZt2BZPGhR_4YF77qX-10">
          <mxGeometry x="100" y="300" width="130" height="130" as="geometry" />
        </mxCell>
        <mxCell id="aVpiYsMYMwe3Tgz7oXU2-10" value="" style="rounded=0;whiteSpace=wrap;html=1;" vertex="1" parent="aVpiYsMYMwe3Tgz7oXU2-15">
          <mxGeometry width="130" height="130" as="geometry" />
        </mxCell>
        <mxCell id="aVpiYsMYMwe3Tgz7oXU2-11" value="" style="endArrow=none;html=1;rounded=0;exitX=0;exitY=0;exitDx=0;exitDy=0;entryX=1;entryY=1;entryDx=0;entryDy=0;" edge="1" parent="aVpiYsMYMwe3Tgz7oXU2-15" source="aVpiYsMYMwe3Tgz7oXU2-10" target="aVpiYsMYMwe3Tgz7oXU2-10">
          <mxGeometry width="50" height="50" relative="1" as="geometry">
            <mxPoint x="390" y="200" as="sourcePoint" />
            <mxPoint x="440" y="150" as="targetPoint" />
          </mxGeometry>
        </mxCell>
        <mxCell id="aVpiYsMYMwe3Tgz7oXU2-12" value="" style="endArrow=none;html=1;rounded=0;exitX=0;exitY=1;exitDx=0;exitDy=0;entryX=1;entryY=0;entryDx=0;entryDy=0;" edge="1" parent="aVpiYsMYMwe3Tgz7oXU2-15" source="aVpiYsMYMwe3Tgz7oXU2-10" target="aVpiYsMYMwe3Tgz7oXU2-10">
          <mxGeometry width="50" height="50" relative="1" as="geometry">
            <mxPoint x="220" y="170" as="sourcePoint" />
            <mxPoint x="270" y="120" as="targetPoint" />
          </mxGeometry>
        </mxCell>
        <mxCell id="aVpiYsMYMwe3Tgz7oXU2-16" value="" style="group" vertex="1" connectable="0" parent="ZNkZt2BZPGhR_4YF77qX-10">
          <mxGeometry x="510" y="470" width="130" height="130" as="geometry" />
        </mxCell>
        <mxCell id="aVpiYsMYMwe3Tgz7oXU2-17" value="" style="rounded=0;whiteSpace=wrap;html=1;" vertex="1" parent="aVpiYsMYMwe3Tgz7oXU2-16">
          <mxGeometry width="130" height="130" as="geometry" />
        </mxCell>
        <mxCell id="aVpiYsMYMwe3Tgz7oXU2-18" value="" style="endArrow=none;html=1;rounded=0;exitX=0;exitY=0;exitDx=0;exitDy=0;entryX=1;entryY=1;entryDx=0;entryDy=0;" edge="1" parent="aVpiYsMYMwe3Tgz7oXU2-16" source="aVpiYsMYMwe3Tgz7oXU2-17" target="aVpiYsMYMwe3Tgz7oXU2-17">
          <mxGeometry width="50" height="50" relative="1" as="geometry">
            <mxPoint x="390" y="200" as="sourcePoint" />
            <mxPoint x="440" y="150" as="targetPoint" />
          </mxGeometry>
        </mxCell>
        <mxCell id="aVpiYsMYMwe3Tgz7oXU2-19" value="" style="endArrow=none;html=1;rounded=0;exitX=0;exitY=1;exitDx=0;exitDy=0;entryX=1;entryY=0;entryDx=0;entryDy=0;" edge="1" parent="aVpiYsMYMwe3Tgz7oXU2-16" source="aVpiYsMYMwe3Tgz7oXU2-17" target="aVpiYsMYMwe3Tgz7oXU2-17">
          <mxGeometry width="50" height="50" relative="1" as="geometry">
            <mxPoint x="220" y="170" as="sourcePoint" />
            <mxPoint x="270" y="120" as="targetPoint" />
          </mxGeometry>
        </mxCell>
        <mxCell id="aVpiYsMYMwe3Tgz7oXU2-20" value="Our history" style="text;html=1;align=center;verticalAlign=middle;whiteSpace=wrap;rounded=0;fontSize=30;fontStyle=4" vertex="1" parent="ZNkZt2BZPGhR_4YF77qX-10">
          <mxGeometry x="255" y="240" width="230" height="30" as="geometry" />
        </mxCell>
        <mxCell id="aVpiYsMYMwe3Tgz7oXU2-21" value="Lorem ipsum dolor sit amet, consectetur adipiscing elit. Quisque sit &lt;br style=&quot;font-size: 10px;&quot;&gt;amet massa metus. Praesent ac tincidunt ante. Donec at dictum tellus. &lt;br style=&quot;font-size: 10px;&quot;&gt;Aenean vitae nisi eu nisl pulvinar pretium vel sed orci. Nunc imperdiet &lt;br style=&quot;font-size: 10px;&quot;&gt;luctus suscipit. Phasellus ac euismod diam, sed ultricies metus. &lt;br style=&quot;font-size: 10px;&quot;&gt;Praesent sodales aliquam lobortis. Donec velit enim, pellentesque at &lt;br style=&quot;font-size: 10px;&quot;&gt;ornare ac, feugiat sed nibh. Suspendisse varius convallis massa, at &lt;br style=&quot;font-size: 10px;&quot;&gt;placerat ante rutrum et. Class aptent taciti sociosqu ad litora torquent&lt;br style=&quot;font-size: 10px;&quot;&gt; per conubia nostra, per inceptos himenaeos. Suspendisse potenti. Mauris&lt;br style=&quot;font-size: 10px;&quot;&gt; lacinia luctus est non sagittis.&lt;div style=&quot;font-size: 10px;&quot;&gt;&lt;br style=&quot;font-size: 10px;&quot;&gt;&lt;/div&gt;" style="text;html=1;align=left;verticalAlign=middle;whiteSpace=wrap;rounded=0;fontSize=10;" vertex="1" parent="ZNkZt2BZPGhR_4YF77qX-10">
          <mxGeometry x="240" y="300" width="410" height="130" as="geometry" />
        </mxCell>
        <mxCell id="aVpiYsMYMwe3Tgz7oXU2-22" value="&lt;br&gt;&lt;span style=&quot;background-color: initial;&quot;&gt;Integer aliquet tellus nec mi semper sodales. In nisi ante, luctus sit&lt;/span&gt;&lt;br&gt;&lt;span style=&quot;background-color: initial;&quot;&gt;amet feugiat et, molestie nec tortor. Nam nec neque lorem. Donec rutrum,&lt;/span&gt;&lt;br&gt;&lt;span style=&quot;background-color: initial;&quot;&gt;dolor vel convallis tempus, nulla erat dignissim leo, blandit bibendum&amp;nbsp;&lt;/span&gt;&lt;span style=&quot;background-color: initial;&quot;&gt;nibh nunc eget diam. Mauris venenatis bibendum feugiat. Suspendisse sed.&lt;/span&gt;&lt;p&gt;&lt;/p&gt;" style="text;whiteSpace=wrap;html=1;fontSize=10;" vertex="1" parent="ZNkZt2BZPGhR_4YF77qX-10">
          <mxGeometry x="90" y="460" width="417.5" height="140" as="geometry" />
        </mxCell>
        <mxCell id="aVpiYsMYMwe3Tgz7oXU2-23" value="Donec et lorem non diam vehicula vehicula. Nulla placerat, libero quis commodo cursus, augue nibh rhoncus odio, vel dignissim tellus nulla in ui. Etiam convallis magna in feugiat finibus. Sed tellus lorem, porttitor lobortis tortor et, sollicitudin tempor diam. Mauris in eleifend mi.&amp;nbsp;" style="text;whiteSpace=wrap;html=1;fontSize=10;" vertex="1" parent="ZNkZt2BZPGhR_4YF77qX-10">
          <mxGeometry x="230" y="530" width="277.5" height="80" as="geometry" />
        </mxCell>
      </root>
    </mxGraphModel>
  </diagram>
</mxfile>
